<svg width="520" height="112" xmlns="http://www.w3.org/2000/svg" viewBox="0 0 520 112" role="img" aria-labelledby="title desc">
  <title id="title">Heritage Atlas</title>
  <desc id="desc">Heritage Atlas wordmark with an archival atlas rose.</desc>
  <defs>
    <linearGradient id="atlas-ink" x1="16" y1="12" x2="78" y2="90" gradientUnits="userSpaceOnUse">
      <stop stop-color="#40533F"/>
      <stop offset="1" stop-color="#202D22"/>
    </linearGradient>
  </defs>
  <rect x="11" y="11" width="74" height="74" rx="22" fill="url(#atlas-ink)"/>
  <path d="M48 20v56M20 48h56M28.2 28.2l39.6 39.6M67.8 28.2 28.2 67.8" stroke="#FFF8F4" stroke-linecap="round" stroke-width="2.5" opacity=".5"/>
  <path d="m48 17 8.5 22.5L79 48 56.5 56.5 48 79l-8.5-22.5L17 48l22.5-8.5Z" fill="#FFDBD0"/>
  <path d="m48 27 4.4 16.6L69 48l-16.6 4.4L48 69l-4.4-16.6L27 48l16.6-4.4Z" fill="#40533F"/>
  <circle cx="48" cy="48" r="4.5" fill="#FFF8F4"/>
  <text x="108" y="70" fill="#283327" font-family="Playfair Display, Georgia, serif" font-size="57" font-weight="700" letter-spacing="-2.6">Heritage Atlas</text>
  <text x="111" y="97" fill="#77574D" font-family="Source Sans 3, Arial, sans-serif" font-size="12" font-weight="700" letter-spacing="4">EXPLORE THE STORIES THAT CONNECT US</text>
</svg>
